<?xml version="1.0" encoding="utf-8"?>
<!-- Generator: Adobe Illustrator 22.1.0, SVG Export Plug-In . SVG Version: 6.00 Build 0)  -->
<svg version="1.1" id="Ebene_1" xmlns="http://www.w3.org/2000/svg" xmlns:xlink="http://www.w3.org/1999/xlink" x="0px" y="0px"
	 viewBox="0 0 170.1 28.3" style="enable-background:new 0 0 170.1 28.3;" xml:space="preserve">
<g>
	<path d="M34.3,17.2c-0.1,0-1.6,0-1.9,0c-0.3,0-1.8,0-1.9,0c-0.1,0-0.1-0.3,0-0.3c1,0,1.3-0.2,1.3-0.8l0-3.6c0-1.1-0.4-1.8-1.4-1.8
		c-0.3,0-0.9,0.1-1.7,1.2l0,4.3c0,0.6,0.4,0.8,1.4,0.8c0.1,0,0.1,0.3,0,0.3c-0.1,0-1.6,0-1.9,0c-0.3,0-1.8,0-1.9,0
		c-0.1,0-0.1-0.3,0-0.3c1,0,1.3-0.2,1.3-0.8l0-3.6c0-1.1-0.4-1.8-1.4-1.8c-0.3,0-0.9,0.1-1.7,1.2l0,4.3c0,0.6,0.4,0.8,1.4,0.8
		c0.1,0,0.1,0.1,0.1,0.1c0,0.1,0,0.1-0.1,0.1c-0.1,0-1.6,0-1.9,0c-0.3,0-1.8,0-1.9,0c0,0-0.1-0.1-0.1-0.1c0-0.1,0-0.1,0.1-0.1
		c1,0,1.3-0.2,1.3-0.8l0-4.8c0-0.5-0.2-0.6-1.4-0.4c-0.1,0-0.1-0.2,0-0.3c1.2-0.3,1.8-0.5,2.3-0.7l0.2,0l0,1.6
		c0.8-1.1,1.5-1.7,2.4-1.7c0.9,0,1.6,0.5,1.7,1.7c0.9-1.2,1.5-1.7,2.5-1.7c1,0,1.7,0.6,1.8,2.1l0,4.2c0,0.6,0.4,0.8,1.4,0.8
		C34.4,16.9,34.4,17.2,34.3,17.2z"/>
</g>
<g>
	<path d="M41.5,15.8c-0.2,0.5-0.6,1.4-1.4,1.4c-0.6,0-1.1-0.6-1.1-1.4l0-0.2c-0.5,1.1-1.4,1.8-2.4,1.8c-0.9,0-1.9-0.4-1.9-1.8
		c0-0.7,0.6-1.4,1.4-1.7c1.7-0.7,2.7-0.9,2.9-2.2l0-0.3c0-0.9-0.3-1.2-0.9-1.2c-0.9,0-1.4,0.7-1.8,2.2c-0.1,0.3-0.2,0.4-0.7,0.2
		c-0.6-0.2-0.8-0.6-0.4-0.9c1.3-1.4,2.1-1.8,2.9-1.8c1.2,0,1.9,0.5,1.9,1.8l0,3.9c0,0.4,0.2,0.6,0.4,0.6c0.3,0,0.5-0.2,0.8-0.6
		C41.4,15.6,41.6,15.7,41.5,15.8z M39,15l0-2.1c-0.3,0.6-1.2,1-1.9,1.3C36.4,14.5,36,15,36,15.6c0,0.8,0.5,1.1,1.1,1.1
		C38,16.7,38.5,16,39,15z"/>
</g>
<g>
	<path d="M44.1,16c0,0.6,0.4,0.8,1.4,0.8c0.1,0,0.1,0.1,0.1,0.1c0,0.1,0,0.1-0.1,0.1c-0.1,0-1.6,0-1.9,0c-0.3,0-1.8,0.1-1.9,0.1
		c0,0-0.1-0.1-0.1-0.1c0-0.1,0-0.1,0.1-0.1c1,0,1.3-0.2,1.3-0.9l-0.2-4.8c0-0.5-0.2-0.6-1.5-0.4c-0.1,0-0.1-0.2,0-0.3
		c1.2-0.3,1.8-0.5,2.3-0.8l0.2,0L44.1,16z M42.3,7.1c0-0.5,0.3-0.9,0.8-0.9C43.6,6.2,44,6.5,44,7c0,0.5-0.3,0.9-0.8,0.9
		C42.7,7.9,42.3,7.5,42.3,7.1z"/>
</g>
<g>
	<path d="M49.8,16.3C49.7,16.3,49.7,16.3,49.8,16.3c-0.2,0.1-1.6,0.3-1.9,0.3C47.5,16.7,46.1,17,46,17c-0.1,0-0.1-0.2,0-0.3
		c1-0.2,1.3-0.4,1.2-1l-1.5-8.5c-0.1-0.5-0.3-0.5-1.5-0.2c-0.1,0-0.2,0-0.2-0.1c0-0.1,0-0.1,0.2-0.2c1.2-0.5,1.6-0.7,2-1.1l0.3-0.1
		l1.7,9.9c0.1,0.6,0.5,0.8,1.5,0.6c0,0,0.1,0,0.1,0C49.8,16.2,49.8,16.2,49.8,16.3z"/>
</g>
<g>
	<path d="M56.3,10.8c0.4,2-0.1,4-2,4.5c-1,0.2-1.6,0-2.2-0.4l0.1,0.7l-2,0.4c-0.1,0-0.2,0-0.2-0.1c0-0.1,0-0.1,0.2-0.2
		c0.6-0.1,0.9-0.4,0.8-0.9l-1.8-8.3C49.1,6,48.9,6,47.8,6.3c-0.1,0-0.2,0.1-0.2-0.1c0-0.1,0-0.1,0.2-0.2c1-0.5,1.4-0.8,1.8-1.1
		l0.3-0.1l1.1,5c0.3-0.9,0.9-1.8,2.1-2C54.7,7.5,55.9,9,56.3,10.8z M55.1,11.3c-0.4-2.1-1.6-2.8-2.5-2.6c-0.5,0.1-1.1,0.5-1.5,1.7
		l0.7,3.5c0.3,1,1.2,1.3,1.9,1.2C55.1,14.8,55.6,13.4,55.1,11.3z"/>
</g>
<g>
	<path d="M57.4,10.8c-0.4-1.7,0.1-4,2.3-4.5c2.1-0.5,3.7,1.2,4.1,3c0.4,1.7-0.1,3.9-2.3,4.4C59.4,14.2,57.9,12.5,57.4,10.8z
		 M62.5,9.4c-0.6-1.9-1.7-3.1-2.9-2.7c-1.3,0.4-1.4,2.1-0.8,4c0.6,1.9,1.7,3,2.9,2.7C62.9,12.9,63.1,11.3,62.5,9.4z"/>
</g>
<g>
	<path d="M72.3,14.4c-0.1,0-1.5,0-1.8,0c-0.3,0-1.6,0.1-1.7,0.1c-0.1,0-0.1-0.3,0-0.3c1.2,0,1.3-0.2,0.8-0.8l-1.5-2l-1.4,2.1
		c-0.4,0.6,0,0.8,0.9,0.8c0.1,0,0.1,0.3,0,0.3c-0.1,0-1.2,0-1.5,0s-1.3,0.1-1.5,0.1c-0.1,0-0.1-0.3,0-0.3c0.9,0,1-0.3,1.4-0.8
		l1.7-2.5l-1.9-2.5c-0.4-0.5-0.7-0.8-1.5-0.8c-0.1,0-0.1-0.3,0-0.3c0.1,0,1.5,0,1.8,0c0.3,0,1.2-0.1,1.7-0.1c0.1,0,0.1,0.3,0,0.3
		c-1.1,0-1.3,0.3-0.8,0.8l1.2,1.6l1.1-1.7c0.4-0.5,0-0.8-0.9-0.8c-0.1,0-0.1-0.3,0-0.3c0.1,0,1.2,0,1.5,0c0.3,0,1.3-0.1,1.5-0.1
		c0.1,0,0.1,0.3,0,0.3c-0.9,0-1,0.2-1.4,0.7l-1.5,2.3l2.2,2.9c0.4,0.5,0.8,0.8,1.4,0.8C72.4,14.1,72.4,14.4,72.3,14.4z"/>
</g>
<g>
	<path d="M77.4,11c0.2-1.8,1.5-3.7,3.6-3.5c2.2,0.2,3,2.4,2.8,4.2s-1.5,3.7-3.6,3.4C78.1,14.8,77.2,12.7,77.4,11z M82.6,11.3
		c0.1-2-0.5-3.5-1.8-3.6c-1.3-0.1-2,1.4-2.1,3.5c0,2,0.5,3.4,1.8,3.5C81.8,14.8,82.5,13.3,82.6,11.3z"/>
</g>
<g>
	<path d="M91.9,14.6c-0.1,0-1.3,0.1-1.6,0.2c-0.3,0-1.8,0.2-1.9,0.3c-0.1,0-0.1-0.3,0-0.3c1-0.1,1.3-0.4,1.2-1l-0.4-3.6
		c-0.1-1.1-0.6-1.8-1.6-1.7c-0.3,0-0.9,0.2-1.5,1.3l0.5,4.3c0.1,0.6,0.5,0.8,1.4,0.7c0.1,0,0.1,0.1,0.1,0.1c0,0.1,0,0.1-0.1,0.1
		c-0.1,0-1.6,0.2-1.9,0.2c-0.3,0-1.8,0.2-1.9,0.3c0,0-0.1-0.1-0.1-0.1c0-0.1,0-0.1,0.1-0.1c1-0.1,1.3-0.4,1.2-1L85,9.4
		c-0.1-0.5-0.2-0.5-1.5-0.3c-0.1,0-0.1-0.2,0-0.3c1.2-0.4,1.7-0.7,2.2-1l0.2,0L86,9.4c0.7-1.2,1.3-1.8,2.2-1.9c1-0.1,1.8,0.4,2,1.9
		l0.5,4.2c0.1,0.6,0.5,0.8,1.1,0.7C92,14.3,92,14.6,91.9,14.6z"/>
</g>
<g>
	<path d="M108.2,16.5c-0.1,0-1.6,0-1.9,0c-0.3,0-1.8,0.1-1.9,0.1c-0.1,0-0.1-0.3,0-0.3c1,0,1.3-0.2,1.3-0.9l-0.1-3.6
		c0-1.1-0.5-1.8-1.5-1.8c-0.3,0-0.9,0.1-1.7,1.2l0.1,4.3c0,0.6,0.4,0.8,1.4,0.8c0.1,0,0.1,0.3,0,0.3c-0.1,0-1.6,0-1.9,0
		c-0.3,0-1.8,0.1-1.9,0.1c-0.1,0-0.1-0.3,0-0.3c1,0,1.3-0.2,1.3-0.9l-0.1-3.6c0-1.1-0.5-1.8-1.5-1.8c-0.3,0-0.9,0.1-1.7,1.2l0.1,4.3
		c0,0.6,0.4,0.8,1.4,0.8c0.1,0,0.1,0.1,0.1,0.1c0,0.1,0,0.1-0.1,0.1c-0.1,0-1.6,0-1.9,0c-0.3,0-1.8,0.1-1.9,0.1c0,0-0.1-0.1-0.1-0.1
		c0-0.1,0-0.1,0.1-0.1c1,0,1.3-0.2,1.3-0.9l-0.2-4.8c0-0.5-0.2-0.6-1.5-0.4c-0.1,0-0.1-0.2,0-0.3C97,10,97.5,9.7,98,9.5l0.2,0
		l0.1,1.6c0.8-1.2,1.5-1.7,2.4-1.7c0.9,0,1.6,0.4,1.8,1.6c0.8-1.2,1.5-1.7,2.4-1.8c1,0,1.8,0.6,1.8,2.1l0.1,4.2
		c0,0.6,0.4,0.8,1.4,0.8C108.3,16.2,108.3,16.5,108.2,16.5z"/>
</g>
<g>
	<path d="M116.3,11.3c-0.6-0.1-1.1,0-1.3,0.5l-3.8,7.5c-0.5,1-1.1,1.2-1.6,1.3c-0.9,0.1-1.4-0.2-1.4-0.6c0-0.3,0.3-0.7,0.7-0.7
		c0.4,0,0.5,0.5,1.1,0.5c0.2,0,0.6-0.1,0.9-0.8l0.8-1.8l-1.6-6c-0.2-0.7-0.4-0.9-1.2-1c-0.1,0-0.1-0.3,0-0.3c0.1,0,1.4,0.3,1.7,0.3
		c0.3,0,1.3,0.2,1.9,0.3c0.1,0,0.1,0.3,0,0.3c-1-0.2-1.2,0-1.1,0.7l1.1,4.6l2.1-4.3c0.2-0.4-0.2-0.7-1.1-0.8c-0.1,0-0.1-0.3,0-0.3
		c0.1,0,1.3,0.2,1.6,0.3c0.3,0,1.2,0.2,1.3,0.2C116.5,11,116.4,11.3,116.3,11.3z"/>
</g>
<g>
	<path d="M127.3,13.4c-0.6-0.1-1.1,0-1.3,0.5l-3.6,7.7c-0.5,1-1.1,1.3-1.6,1.3c-0.8,0.1-1.4-0.1-1.4-0.6c0-0.3,0.3-0.7,0.7-0.8
		c0.4,0,0.5,0.5,1.1,0.5c0.2,0,0.6-0.2,0.9-0.8l0.7-1.8l-1.8-5.9c-0.2-0.6-0.5-0.9-1.3-1c-0.1,0-0.1-0.3,0-0.3s1.4,0.2,1.7,0.2
		c0.3,0,1.3,0.1,1.9,0.2c0.1,0,0.1,0.3,0,0.3c-1-0.1-1.2,0-1,0.7l1.3,4.6l1.9-4.4c0.2-0.4-0.2-0.6-1.1-0.8c-0.1,0-0.1-0.3,0-0.3
		s1.3,0.2,1.6,0.2c0.3,0,1.2,0.1,1.3,0.1C127.4,13.2,127.4,13.4,127.3,13.4z"/>
</g>
<g>
	<path d="M134.1,19.2c-0.2,0.5-0.6,1.4-1.5,1.4c-0.6,0-1.1-0.6-1.1-1.4V19c-0.6,1.1-1.4,1.8-2.4,1.8c-0.9,0-1.9-0.4-1.9-1.8
		c0-0.7,0.6-1.4,1.4-1.7c1.7-0.7,2.7-0.9,2.9-2.2v-0.3c0-0.9-0.3-1.2-0.9-1.2c-0.9,0-1.4,0.7-1.8,2.2c-0.1,0.3-0.2,0.4-0.7,0.2
		c-0.6-0.2-0.8-0.6-0.4-0.9c1.3-1.4,2.1-1.8,2.9-1.8c1.2,0,1.9,0.5,1.9,1.9V19c0,0.4,0.1,0.6,0.4,0.6c0.3,0,0.5-0.2,0.8-0.6
		C134,18.9,134.2,19,134.1,19.2z M131.6,18.4v-2.1c-0.3,0.6-1.2,1-1.9,1.2c-0.7,0.3-1.1,0.8-1.1,1.4c0,0.8,0.5,1.1,1.1,1.1
		C130.5,20,131.1,19.4,131.6,18.4z"/>
</g>
<g>
	<path d="M139.9,13.8c0,0.3-0.4,0.8-0.9,0.8c-0.4,0-0.5-0.8-1.1-0.8c-0.4,0-0.9,0.5-1.2,1.5v4c0,0.6,0.4,0.8,1.3,0.8
		c0.1,0,0.1,0.3,0,0.3c-0.1,0-1.6,0-1.9,0c-0.3,0-1.5,0-1.6,0c-0.1,0-0.1-0.3,0-0.3c0.7,0,1.1-0.2,1.1-0.8v-4.8
		c0-0.5-0.3-0.8-1.1-0.8c-0.1,0-0.1-0.3,0-0.3c0.8,0,1.6-0.1,2-0.4h0.2v1.7c0.5-1.2,1.3-1.8,2-1.8C139.2,13.1,139.9,13.3,139.9,13.8
		z"/>
</g>
<g>
	<path d="M147.5,20.4c0,0.1,0,0.1-0.2,0.1h-2.2v-0.9c-0.5,0.6-1.1,1.1-2,1.1c-2.1,0-3-1.9-3-3.7s1.2-3.7,3.3-3.7
		c0.7,0,1.2,0.3,1.7,0.7v-3c0-0.5-0.2-0.6-1.4-0.5c-0.1,0-0.2,0-0.2-0.1c0-0.1,0-0.1,0.2-0.1c1.2-0.3,1.7-0.5,2.2-0.7h0.3v9.9
		c0,0.5,0.3,0.8,1.1,0.8C147.4,20.3,147.5,20.3,147.5,20.4z M145.1,19.1v-3.3c0-1.3-0.8-2.4-1.9-2.2c-1.5,0.1-1.8,1.7-1.8,2.9
		c0,2.1,0.8,3.3,2.3,3.3C144.3,19.8,144.7,19.6,145.1,19.1z"/>
</g>
</svg>
