<?xml version="1.0" encoding="utf-8"?>
<!-- Generator: Adobe Illustrator 22.1.0, SVG Export Plug-In . SVG Version: 6.00 Build 0)  -->
<svg version="1.1" id="Ebene_1" xmlns="http://www.w3.org/2000/svg" xmlns:xlink="http://www.w3.org/1999/xlink" x="0px" y="0px"
	 viewBox="0 0 170.1 28.3" style="enable-background:new 0 0 170.1 28.3;" xml:space="preserve">
<g>
	<path d="M33.4,17.8c-0.1,0-1.6,0-1.9,0c-0.3,0-1.8,0-1.9,0c-0.1,0,0-0.3,0.1-0.3c1,0,1.4-0.2,1.6-0.8l1.3-3.7
		c0.4-1.1,0.2-1.8-0.8-1.8c-0.3,0-0.9,0.1-2.1,1.2l-1.5,4.3c-0.2,0.6,0.1,0.8,1.1,0.8c0.1,0,0,0.3-0.1,0.3c-0.1,0-1.6,0-1.9,0
		c-0.3,0-1.8,0-1.9,0c-0.1,0,0-0.3,0.1-0.3c1,0,1.4-0.2,1.6-0.8l1.3-3.7c0.4-1.1,0.2-1.8-0.8-1.8c-0.3,0-0.9,0.1-2.1,1.2l-1.5,4.3
		c-0.2,0.6,0.1,0.8,1.1,0.8c0.1,0,0.1,0.1,0,0.1c0,0.1-0.1,0.1-0.1,0.1c-0.1,0-1.6,0-1.9,0c-0.3,0-1.8,0-1.9,0c0,0,0-0.1,0-0.1
		c0-0.1,0.1-0.1,0.1-0.1c1,0,1.4-0.2,1.6-0.8l1.7-4.8c0.2-0.5,0-0.6-1.3-0.4c-0.1,0,0-0.2,0.1-0.3c1.3-0.3,2-0.5,2.6-0.7l0.2,0
		l-0.6,1.6c1.3-1.1,2.1-1.7,3-1.7c0.9,0,1.4,0.5,1.1,1.7c1.3-1.2,2.2-1.7,3.1-1.7c1,0,1.5,0.6,1,2.1l-1.5,4.2
		c-0.2,0.6,0.1,0.8,1.1,0.8C33.6,17.5,33.5,17.8,33.4,17.8z"/>
</g>
<g>
	<path d="M41.1,16.4c-0.4,0.5-1.1,1.4-2,1.5c-0.6,0-0.8-0.6-0.6-1.4l0.1-0.2c-0.9,1.1-2,1.8-3,1.8c-0.9,0-1.7-0.4-1.2-1.8
		c0.3-0.7,1.1-1.4,2-1.7c2-0.7,3.1-0.9,3.7-2.2l0.1-0.3c0.3-0.9,0.1-1.2-0.5-1.2c-0.9,0-1.7,0.7-2.6,2.2c-0.2,0.3-0.4,0.4-0.8,0.2
		c-0.5-0.2-0.5-0.6-0.1-0.9c1.8-1.4,2.8-1.8,3.6-1.8c1.2,0,1.7,0.5,1.2,1.9l-1.4,3.9c-0.1,0.4-0.1,0.6,0.2,0.6c0.3,0,0.6-0.2,1-0.6
		C41.1,16.2,41.3,16.2,41.1,16.4z M38.9,15.6l0.7-2.1c-0.5,0.6-1.5,1-2.4,1.3c-0.8,0.3-1.4,0.8-1.6,1.4c-0.3,0.8,0.1,1.1,0.7,1.1
		C37.3,17.3,38.1,16.6,38.9,15.6z"/>
</g>
<g>
	<path d="M43.6,16.6c-0.2,0.6,0.1,0.8,1.1,0.8c0.1,0,0.1,0.1,0,0.1c0,0.1-0.1,0.1-0.1,0.1c-0.1,0-1.6,0-1.9,0
		c-0.3,0-1.8,0.1-1.9,0.1c0,0-0.1-0.1,0-0.1c0-0.1,0.1-0.1,0.1-0.1c1,0,1.4-0.2,1.6-0.9l1.6-4.9c0.2-0.5,0-0.6-1.3-0.4
		c-0.1,0,0-0.2,0.1-0.3c1.3-0.3,2-0.5,2.6-0.8l0.2,0L43.6,16.6z M45.1,7.5c0.2-0.5,0.7-0.9,1.1-0.9c0.5,0,0.7,0.4,0.6,0.8
		c-0.2,0.5-0.7,0.9-1.1,0.9C45.2,8.4,45,8,45.1,7.5z"/>
</g>
<g>
	<path d="M48.9,16.9C48.9,16.9,48.8,16.9,48.9,16.9c-0.2,0.1-1.6,0.3-1.9,0.3c-0.3,0.1-1.8,0.3-1.9,0.4c-0.1,0-0.1-0.3,0-0.3
		c1-0.2,1.4-0.4,1.5-1.1l1.6-9c0.1-0.5-0.1-0.6-1.3-0.2c-0.2,0-0.2,0-0.2-0.1c0-0.1,0.1-0.1,0.2-0.2c1.3-0.5,1.7-0.8,2.3-1.1
		l0.3-0.1L47.7,16c-0.1,0.7,0.2,0.8,1.2,0.6c0,0,0.1,0,0.1,0C48.9,16.7,48.9,16.8,48.9,16.9z"/>
</g>
<g>
	<path d="M56.7,11.1c-0.3,2.1-1.5,4.3-3.4,4.8c-1,0.2-1.4,0-1.9-0.5l-0.1,0.7l-2,0.4c-0.1,0-0.2,0-0.2-0.1c0-0.1,0.1-0.2,0.2-0.2
		c0.6-0.1,1-0.5,1.1-1l1.3-9c0.1-0.5-0.1-0.6-1.2-0.2c-0.1,0-0.2,0.1-0.2-0.1c0-0.1,0.1-0.1,0.2-0.2c1.1-0.5,1.6-0.8,2.1-1.2L53,4.6
		L52.2,10c0.6-0.9,1.4-1.9,2.6-2.1C56.4,7.6,57,9.2,56.7,11.1z M55.5,11.6c0.3-2.2-0.5-3-1.4-2.8c-0.5,0.1-1.2,0.6-2,1.8l-0.5,3.7
		c0,1,0.6,1.4,1.4,1.3C54.3,15.4,55.2,13.8,55.5,11.6z"/>
</g>
<g>
	<path d="M57.8,11c0.2-1.9,1.5-4.3,3.6-4.9c2.1-0.5,2.9,1.4,2.7,3.3c-0.2,1.9-1.5,4.3-3.6,4.8C58.4,14.8,57.6,12.9,57.8,11z
		 M62.9,9.6c0.1-2.1-0.4-3.4-1.7-3c-1.3,0.4-2,2.2-2.1,4.3c-0.1,2.1,0.5,3.3,1.7,2.9C62.1,13.4,62.8,11.7,62.9,9.6z"/>
</g>
<g>
	<path d="M71.4,15c-0.1,0-1.4,0-1.7,0C69.4,15,68,15,67.9,15c-0.1,0,0-0.3,0.1-0.3c1.2,0,1.4-0.2,1.1-0.8l-0.8-2.1L66.2,14
		c-0.6,0.6-0.3,0.8,0.6,0.8c0.1,0,0,0.3-0.1,0.3c-0.1,0-1.2,0-1.4,0s-1.4,0.1-1.5,0.1c-0.1,0,0-0.3,0.1-0.3c0.9,0,1.1-0.3,1.7-0.9
		l2.6-2.6l-0.9-2.5c-0.2-0.6-0.4-0.8-1.2-0.8c-0.1,0,0-0.3,0.1-0.3c0.1,0,1.5,0,1.7,0s1.2-0.1,1.8-0.1c0.1,0,0,0.3-0.1,0.3
		c-1.1,0-1.4,0.3-1.1,0.8l0.6,1.7l1.7-1.7c0.6-0.5,0.3-0.8-0.6-0.8c-0.1,0,0-0.3,0.1-0.3c0.1,0,1.2,0,1.5,0c0.3,0,1.4-0.1,1.5-0.1
		c0.1,0,0,0.3-0.1,0.3c-0.9,0-1.1,0.2-1.6,0.7L69.3,11l1.1,2.9c0.2,0.6,0.5,0.8,1.1,0.8C71.6,14.7,71.5,15,71.4,15z"/>
</g>
<g>
	<path d="M77.8,11.7c0.8-1.7,2.9-3.6,5-3.4c2.2,0.2,2.3,2.3,1.5,4c-0.8,1.7-2.8,3.5-5,3.3C77.1,15.4,77,13.4,77.8,11.7z M83,12
		c0.8-2,0.7-3.4-0.6-3.4C81.1,8.5,79.8,10,79,12c-0.8,2-0.7,3.3,0.7,3.4C81,15.4,82.2,14,83,12z"/>
</g>
<g>
	<path d="M91,15.2c-0.1,0-1.3,0.1-1.6,0.2c-0.3,0-1.8,0.2-1.9,0.3c-0.1,0,0-0.3,0.1-0.3c1-0.1,1.4-0.4,1.5-1l0.9-3.8
		c0.3-1.2,0-1.9-1-1.7c-0.3,0-0.9,0.2-1.9,1.4l-1.1,4.5c-0.2,0.7,0.2,0.8,1.1,0.7c0.1,0,0.1,0.1,0,0.1c0,0.1,0,0.1-0.1,0.1
		c-0.1,0-1.6,0.2-1.9,0.2c-0.3,0-1.8,0.2-1.9,0.3c0,0-0.1-0.1,0-0.1c0-0.1,0.1-0.1,0.1-0.1c1-0.1,1.4-0.4,1.5-1l1.2-5
		c0.1-0.5,0-0.6-1.3-0.3c-0.1,0,0-0.2,0.1-0.3c1.3-0.4,1.9-0.7,2.5-1l0.2,0l-0.4,1.6c1.1-1.2,1.9-1.8,2.8-1.9c1-0.1,1.6,0.4,1.2,2
		l-1,4.3c-0.2,0.7,0.2,0.8,0.8,0.7C91.2,14.9,91.1,15.2,91,15.2z"/>
</g>
<g>
	<path d="M107.3,17.1c-0.1,0-1.6,0-1.9,0c-0.3,0-1.8,0.1-1.9,0.1c-0.1,0,0-0.3,0.1-0.3c1,0,1.4-0.2,1.6-0.9l1.2-3.7
		c0.4-1.2,0.2-1.9-0.8-1.8c-0.3,0-0.9,0.1-2.1,1.3l-1.4,4.4c-0.2,0.6,0.1,0.8,1.1,0.8c0.1,0,0,0.3-0.1,0.3c-0.1,0-1.6,0-1.9,0
		c-0.3,0-1.8,0.1-1.9,0.1c-0.1,0,0-0.3,0.1-0.3c1,0,1.4-0.2,1.6-0.9l1.2-3.7c0.4-1.2,0.2-1.9-0.8-1.8c-0.3,0-0.9,0.1-2.1,1.2
		l-1.4,4.4c-0.2,0.6,0.1,0.8,1.1,0.8c0.1,0,0.1,0.1,0,0.1c0,0.1-0.1,0.1-0.1,0.1c-0.1,0-1.6,0-1.9,0c-0.3,0-1.8,0.1-1.9,0.1
		c0,0-0.1-0.1,0-0.1c0-0.1,0.1-0.1,0.1-0.1c1,0,1.4-0.2,1.6-0.9l1.6-4.9c0.2-0.5,0-0.6-1.3-0.4c-0.1,0,0-0.2,0.1-0.3
		c1.3-0.3,2-0.5,2.6-0.8l0.2,0l-0.5,1.6c1.2-1.2,2.1-1.7,3-1.7c0.9,0,1.4,0.4,1.2,1.6c1.3-1.2,2.1-1.8,3-1.8c1,0,1.5,0.6,1,2.1
		l-1.4,4.2c-0.2,0.6,0.1,0.8,1.1,0.8C107.5,16.8,107.4,17.1,107.3,17.1z"/>
</g>
<g>
	<path d="M117.9,12.3c-0.6-0.1-1.1,0-1.6,0.4l-6.7,7.1c-0.9,0.9-1.6,1.1-2.1,1.2c-0.9,0.1-1.4-0.2-1.3-0.6c0.1-0.3,0.6-0.7,1-0.7
		c0.4,0,0.4,0.5,1,0.5c0.2,0,0.7-0.1,1.2-0.8l1.5-1.6l0.4-5.6c0-0.6-0.1-0.9-1-1c-0.1,0,0-0.3,0.1-0.3c0.1,0,1.4,0.3,1.7,0.3
		c0.3,0,1.3,0.2,1.9,0.3c0.1,0,0,0.3-0.1,0.3c-1-0.2-1.3,0-1.4,0.6l-0.4,4.4l3.8-4c0.4-0.4,0-0.6-0.8-0.8c-0.1,0,0-0.3,0.1-0.3
		c0.1,0,1.2,0.2,1.5,0.3c0.3,0,1.2,0.2,1.3,0.2C118.2,12,118,12.3,117.9,12.3z"/>
</g>
<g>
	<path d="M128.9,14.3c-0.6-0.1-1.1,0-1.5,0.5l-6.5,7.3c-0.8,1-1.6,1.2-2.1,1.3c-0.9,0.1-1.4-0.1-1.3-0.6c0.1-0.3,0.6-0.7,1-0.7
		c0.4,0,0.4,0.5,1,0.4c0.2,0,0.7-0.2,1.2-0.8l1.4-1.7l0.2-5.7c0-0.6-0.2-0.8-1-1c-0.1,0,0-0.3,0.1-0.3c0.1,0,1.4,0.2,1.7,0.2
		c0.3,0,1.3,0.1,1.9,0.2c0.1,0,0,0.3-0.1,0.3c-1-0.1-1.3,0-1.3,0.7l-0.3,4.4l3.6-4.2c0.4-0.4,0-0.6-0.9-0.7c-0.1,0,0-0.3,0.1-0.3
		c0.1,0,1.2,0.2,1.5,0.2c0.3,0,1.2,0.1,1.3,0.1C129.2,14.1,129,14.3,128.9,14.3z"/>
</g>
<g>
	<path d="M133.7,19.8c-0.4,0.5-1.1,1.4-2,1.4c-0.6,0-0.8-0.6-0.5-1.4l0.1-0.2c-0.9,1.1-2,1.8-3,1.8c-0.9,0-1.7-0.4-1.2-1.8
		c0.3-0.7,1.1-1.4,2-1.7c2-0.7,3.1-0.9,3.7-2.2l0.1-0.3c0.3-0.9,0.1-1.2-0.4-1.2c-0.9,0-1.7,0.7-2.6,2.2c-0.2,0.3-0.4,0.4-0.8,0.2
		c-0.5-0.2-0.5-0.6-0.1-0.9c1.8-1.4,2.8-1.8,3.6-1.8c1.2,0,1.7,0.5,1.2,1.9l-1.4,3.9c-0.1,0.4-0.1,0.6,0.2,0.6c0.3,0,0.6-0.2,1-0.6
		C133.7,19.5,133.8,19.6,133.7,19.8z M131.5,19l0.7-2.1c-0.5,0.6-1.5,1-2.4,1.2c-0.8,0.3-1.4,0.8-1.6,1.4c-0.3,0.8,0,1.1,0.7,1.1
		C129.8,20.6,130.7,19.9,131.5,19z"/>
</g>
<g>
	<path d="M141.5,14.4c-0.1,0.3-0.7,0.8-1.2,0.8c-0.4,0-0.3-0.7-0.8-0.7c-0.4,0-1.1,0.5-1.8,1.5l-1.5,4c-0.2,0.6,0.1,0.8,1,0.8
		c0.1,0,0,0.3-0.1,0.3c-0.1,0-1.6,0-1.9,0c-0.3,0-1.5,0-1.6,0c-0.1,0,0-0.3,0.1-0.3c0.7,0,1.1-0.2,1.4-0.8l1.8-4.8
		c0.2-0.5-0.1-0.7-0.9-0.7c-0.1,0,0-0.3,0.1-0.3c0.8,0,1.6-0.1,2.2-0.4h0.2l-0.6,1.7c1-1.2,2-1.8,2.7-1.8
		C141,13.7,141.6,13.9,141.5,14.4z"/>
</g>
<g>
	<path d="M146.6,21c0,0.1-0.1,0.1-0.2,0.1h-2.2l0.3-0.9c-0.7,0.6-1.5,1.1-2.3,1.1c-2.1,0-2.3-1.9-1.6-3.7c0.6-1.8,2.6-3.7,4.6-3.7
		c0.7,0,1.1,0.3,1.4,0.7l1.1-3c0.2-0.5,0-0.6-1.3-0.5c-0.2,0-0.2,0-0.2-0.1c0-0.1,0.1-0.1,0.2-0.1c1.3-0.3,1.8-0.5,2.5-0.7h0.3
		l-3.6,9.9c-0.2,0.5,0.1,0.8,0.9,0.8C146.6,20.9,146.7,20.9,146.6,21z M144.7,19.7l1.2-3.3c0.5-1.3,0-2.4-1.1-2.2
		c-1.5,0.1-2.4,1.7-2.9,2.9c-0.8,2.1-0.4,3.3,1.1,3.3C143.7,20.4,144.2,20.2,144.7,19.7z"/>
</g>
</svg>
