<svg id="Ebene_1" data-name="Ebene 1" xmlns="http://www.w3.org/2000/svg" xmlns:xlink="http://www.w3.org/1999/xlink" viewBox="0 0 63.4 23.4"><defs><style>.cls-1{fill:none;}.cls-2{clip-path:url(#clip-path);}.cls-3{fill:url(#Unbenannter_Verlauf);}.cls-4{fill:#fff;}</style><clipPath id="clip-path" transform="translate(-1.14 2.12)"><rect class="cls-1" x="1.94" y="0.28" width="61.8" height="18.6" rx="2.9" ry="2.9"/></clipPath><linearGradient id="Unbenannter_Verlauf" x1="-565.76" y1="-533.41" x2="-564.76" y2="-533.41" gradientTransform="translate(10183.63 -9951.15) rotate(-87.8) scale(18.3)" gradientUnits="userSpaceOnUse"><stop offset="0" stop-color="#e30613"/><stop offset="0.01" stop-color="#e30613"/><stop offset="0.09" stop-color="#e41518"/><stop offset="0.22" stop-color="#e62c25"/><stop offset="0.38" stop-color="#e9453c"/><stop offset="0.57" stop-color="#ed6860"/><stop offset="0.77" stop-color="#f18f93"/><stop offset="0.99" stop-color="#f6bcd4"/><stop offset="1" stop-color="#f7bfd9"/></linearGradient></defs><title>OK_mit_font</title><g class="cls-2"><polygon class="cls-3" points="0 21 0.8 0 63.4 2.4 62.5 23.4 0 21"/></g><path class="cls-4" d="M23.94,10.08a5.26,5.26,0,0,1,1.3-3.9,4.83,4.83,0,0,1,3.5-1.4,4.3,4.3,0,0,1,2.5.7,5.19,5.19,0,0,1,1.7,1.9,6,6,0,0,1,.6,2.7,6,6,0,0,1-.6,2.7,4.24,4.24,0,0,1-1.7,1.8,5.33,5.33,0,0,1-2.4.6,4.3,4.3,0,0,1-2.5-.7,5.19,5.19,0,0,1-1.7-1.9A4.51,4.51,0,0,1,23.94,10.08Zm1.4,0a4,4,0,0,0,1,2.9,3.32,3.32,0,0,0,2.5,1,3.41,3.41,0,0,0,2.5-1.1,4.5,4.5,0,0,0,1-3,4.64,4.64,0,0,0-.4-2.1,3.33,3.33,0,0,0-1.2-1.4,3.45,3.45,0,0,0-1.8-.5,3.1,3.1,0,0,0-2.4,1C25.64,7.48,25.34,8.58,25.34,10.08Z" transform="translate(-1.14 2.12)"/><path class="cls-4" d="M35.24,15V5h1.3v5l5-5h1.8l-4.2,4,4.4,6h-1.8l-3.6-5.1-1.6,1.6V15Z" transform="translate(-1.14 2.12)"/></svg>