<svg id="Ebene_1" data-name="Ebene 1" xmlns="http://www.w3.org/2000/svg" viewBox="0 0 49.54 12.51"><title>privacy_geneigt</title><path d="M10.93,6.53c-.6,1.9-2.2,3.9-4.2,3.9A1.67,1.67,0,0,1,5,9.63l-1,3.1c-.2.6.1.8,1.1.8.1,0,.1.1,0,.1a.1.1,0,0,1-.1.1H3.13c-.3,0-1.6.1-1.7.1s-.1-.1,0-.1a.1.1,0,0,1,.1-.1c.8,0,1.3-.2,1.5-.9l2.7-8.2c.2-.5,0-.6-1.1-.4-.2,0-.2,0-.2-.1s.1-.1.2-.2A9.76,9.76,0,0,0,6.93,3h.3l-.5,1.5a4.27,4.27,0,0,1,3-1.6C11.23,2.93,11.53,4.63,10.93,6.53Zm-1.3.2c.7-2.1.1-3.1-.9-3-.6,0-1.3.3-2.2,1.4l-1.2,3.5a1.23,1.23,0,0,0,1.1,1.6C7.73,10.23,8.93,8.93,9.63,6.73Z" transform="translate(-1.39 -1.32)"/><path d="M14.93,6.33l-1.6,3.4c-.3.6,0,.8,1,.9.1,0,0,.1,0,.1a.1.1,0,0,1-.1.1c-.1,0-1.6-.2-1.9-.2s-1.8-.1-1.9-.1v-.1a.1.1,0,0,1,.1-.1c1,.1,1.4-.1,1.7-.7l2.2-4.7c.2-.5,0-.8-1.1-.8-.1,0-.2,0-.1-.1s.1-.1.2-.1a4.39,4.39,0,0,0,2.4-.2h.3l-.6,1.4c2.7-2.6,4.1-3.9,5.9-3.8a.67.67,0,0,1,.7.9,2,2,0,0,1-1.4.8c-.4,0-.2-.8-.8-.9S17.33,3.23,14.93,6.33Zm4.2,4.8a.1.1,0,0,1-.1.1c-.1,0-1.6-.2-1.9-.2s-1.8-.1-1.9-.1v-.1a.1.1,0,0,1,.1-.1c1,.1,1.4-.1,1.7-.7l2.2-4.7c.2-.5.1-.6-1.2-.6-.2,0-.2,0-.1-.1s.1-.1.3-.1a4.94,4.94,0,0,0,2.5-.5H21l-2.8,6c-.3.6,0,.8,1,.9A.31.31,0,0,0,19.13,11.13Z" transform="translate(-1.39 -1.32)"/><path d="M28.93,3.83a1.29,1.29,0,0,0-1.3.8l-3.8,6.5h-.4l-.6-6c-.1-.6-.3-.8-1.1-.8-.1,0,0-.3.1-.3s1.4-.1,1.7-.1a10.07,10.07,0,0,0,1.9-.2c.1,0,0,.3-.1.3-1,.1-1.3.3-1.2.9l.3,4.4,2.8-4.7c.4-.6,0-.7-1-.7-.1,0,0-.3.1-.3s1.3-.1,1.6-.1,1.2-.1,1.3-.1C29.13,3.63,29,3.83,28.93,3.83Z" transform="translate(-1.39 -1.32)"/><path d="M34.23,8.13c-.4.6-.9,1.6-1.8,1.7-.6.1-.9-.5-.7-1.4v-.2a4.23,4.23,0,0,1-2.8,2.1c-.9.1-1.8-.2-1.4-1.7a3.05,3.05,0,0,1,1.8-1.9c1.9-.9,2.9-1.3,3.4-2.6l.1-.3c.2-.9,0-1.2-.6-1.2-.9.1-1.6.9-2.3,2.5-.2.3-.3.4-.7.3s-.6-.5-.2-.9c1.6-1.6,2.5-2.1,3.4-2.2,1.2-.1,1.8.3,1.4,1.7l-.9,4q-.15.6.3.6c.3,0,.6-.3,1-.7C34.13,7.83,34.33,7.93,34.23,8.13Zm-2.3-.6.5-2.1a7.12,7.12,0,0,1-2.2,1.5,2.29,2.29,0,0,0-1.4,1.5c-.2.8.2,1.1.8,1C30.53,9.43,31.23,8.63,31.93,7.53Z" transform="translate(-1.39 -1.32)"/><path d="M41.43,8.43c-.8.9-2.4,2.3-3.9,2.1-1.9-.2-2.5-1.9-1.5-4s3.2-3.5,4.9-3.3c1.5.1,1.8,1.3,1.7,2.3a1.08,1.08,0,0,1-.7.8c-.5.2-.7-.1-.6-.4.7-1.5.4-2.6-1-2.4-1.2.1-2.4,1.5-2.9,2.6-1,2.2-.4,3.5.8,3.6a4,4,0,0,0,3.1-1.5c.1-.1.1-.1.2-.1S41.53,8.23,41.43,8.43Z" transform="translate(-1.39 -1.32)"/><path d="M50.63,3.43a1.8,1.8,0,0,0-1.5.7l-5.5,8a3.31,3.31,0,0,1-1.9,1.5c-.9.2-1.4,0-1.3-.4a1.08,1.08,0,0,1,.9-.8c.4-.1.4.4,1,.3.2,0,.6-.2,1.1-.9l1.2-1.9-.5-5.6c-.1-.6-.3-.8-1.1-.8-.1,0,0-.3.1-.3h3.6c.1,0,0,.3-.1.3-1,0-1.3.2-1.2.8l.3,4.4,3.1-4.6c.3-.4-.1-.6-.9-.6-.1,0,0-.3.1-.3h2.9C50.83,3.23,50.73,3.43,50.63,3.43Z" transform="translate(-1.39 -1.32)"/></svg>