<svg id="Ebene_1" data-name="Ebene 1" xmlns="http://www.w3.org/2000/svg" viewBox="0 0 46.04 12.92"><title>privacy_regular</title><path d="M8.43,6.2c.1,1.9-.8,3.8-2.8,3.9a2.48,2.48,0,0,1-2-.8l.1,3.1c0,.6.4.8,1.4.8a.1.1,0,0,1,.1.1c0,.1,0,.1-.1.1H3.23c-.3,0-1.6.1-1.7.1l-.1-.1c0-.1,0-.1.1-.1.8,0,1.2-.2,1.2-.9l-.2-8.1c0-.5-.2-.6-1.3-.4-.1,0-.2,0-.2-.1s0-.1.2-.2a6.72,6.72,0,0,0,2-.8h.3V4.3a2.83,2.83,0,0,1,2.4-1.6C7.43,2.6,8.33,4.3,8.43,6.2Zm-1.2.2c-.1-2.1-1.1-3-2-3-.6,0-1.2.3-1.8,1.4l.1,3.5a1.7,1.7,0,0,0,1.7,1.5C6.53,9.8,7.23,8.5,7.23,6.4Z" transform="translate(-1.03 -0.58)"/><path d="M12.23,5.8l-.3,3.5c-.1.6.3.9,1.3.9a.1.1,0,0,1,.1.1c0,.1,0,.1-.1.1s-1.6-.2-1.9-.2-1.8-.1-1.9-.1l-.1-.1c0-.1,0-.1.1-.1,1,.1,1.4-.1,1.4-.7l.4-4.8c0-.5-.3-.8-1.4-.9-.1,0-.2,0-.2-.2s.1-.1.2-.1A3.44,3.44,0,0,0,12,3h.3V4.5C14,1.8,14.93.4,16.73.6a1,1,0,0,1,1,1,1,1,0,0,1-1,.8c-.4,0-.5-.9-1.1-.9C14.83,1.4,13.33,2.6,12.23,5.8Zm5.7,5c0,.1,0,.1-.1.1s-1.6-.2-1.9-.2-1.8-.1-1.9-.1l-.1-.1c0-.1,0-.1.1-.1,1,.1,1.4-.1,1.4-.7l.4-4.8c0-.5-.1-.6-1.4-.6-.2,0-.2,0-.2-.1s.1-.1.2-.1a3.51,3.51,0,0,0,2.2-.5h.3l-.5,6.2c-.1.6.3.9,1.3.9C17.93,10.6,17.93,10.7,17.93,10.8Z" transform="translate(-1.03 -0.58)"/><path d="M25.33,3.6a1,1,0,0,0-1.1.7l-1.6,6.4h-.4l-2.8-5.9A1.12,1.12,0,0,0,18,4.1c-.1,0-.1-.3,0-.3s1.4-.1,1.7-.1,1.8-.1,1.9-.1.1.3,0,.3c-1,.1-1.2.3-.9.9l1.9,4.3,1.1-4.6c.2-.6-.3-.7-1.3-.7-.1,0-.1-.3,0-.3s1.3-.1,1.6-.1,1.2-.1,1.3-.1S25.43,3.6,25.33,3.6Z" transform="translate(-1.03 -0.58)"/><path d="M32.63,7.7c-.2.5-.4,1.5-1.3,1.6-.6.1-1.1-.5-1.2-1.3V7.8a2.66,2.66,0,0,1-2.2,2,1.73,1.73,0,0,1-2.1-1.6A2,2,0,0,1,27,6.3c1.6-.9,2.6-1.2,2.6-2.5V3.5c-.1-.9-.5-1.2-1-1.1-.9.1-1.3.9-1.5,2.4-.1.3-.2.4-.6.3-.6-.1-.8-.5-.5-.9,1.1-1.6,1.9-2.1,2.7-2.1,1.2-.1,2,.3,2.1,1.6l.5,3.8c0,.4.2.6.5.6s.5-.3.8-.6C32.43,7.5,32.63,7.6,32.63,7.7ZM30,7.3l-.2-2A4.53,4.53,0,0,1,28,6.8a1.49,1.49,0,0,0-.9,1.5,1.11,1.11,0,0,0,1.2,1A2.69,2.69,0,0,0,30,7.3Z" transform="translate(-1.03 -0.58)"/><path d="M39.43,7.9a3.28,3.28,0,0,1-3,2.2c-1.9-.2-3.1-1.9-2.9-4.1A3.59,3.59,0,0,1,37,2.5a2.76,2.76,0,0,1,2.4,2.3c0,.3.1.7-.4.9s-.7-.1-.7-.4c.1-1.5-.5-2.6-1.8-2.5-1.1.1-1.7,1.6-1.9,2.7-.2,2.3.9,3.6,2.1,3.7a2.42,2.42,0,0,0,2.4-1.5c.1-.1.1-.1.2-.1S39.53,7.7,39.43,7.9Z" transform="translate(-1.03 -0.58)"/><path d="M46.93,3.1c-.6,0-1.1.2-1.2.7l-2.6,8a1.93,1.93,0,0,1-1.4,1.5c-.8.2-1.4,0-1.5-.4a.68.68,0,0,1,.6-.8c.3-.1.6.4,1.2.3.2,0,.6-.2.8-.9l.5-1.9L40.83,4a1.27,1.27,0,0,0-1.4-.8c-.1,0-.1-.3,0-.3H43c.1,0,.1.3,0,.3-1,0-1.2.2-.9.8l1.8,4.4,1.4-4.6c.1-.5-.3-.6-1.2-.6-.1,0-.1-.3,0-.3H47C47.13,2.9,47,3.1,46.93,3.1Z" transform="translate(-1.03 -0.58)"/></svg>