<?xml version="1.0" encoding="utf-8"?>
<!-- Generator: Adobe Illustrator 22.1.0, SVG Export Plug-In . SVG Version: 6.00 Build 0)  -->
<svg version="1.1" id="Ebene_1" xmlns="http://www.w3.org/2000/svg" xmlns:xlink="http://www.w3.org/1999/xlink" x="0px" y="0px"
	 viewBox="0 0 28.3 28.3" style="enable-background:new 0 0 28.3 28.3;" xml:space="preserve">
<style type="text/css">
	.st0{fill:none;stroke:#000000;stroke-width:0.5;stroke-miterlimit:10;}
</style>
<g>
	<polygon class="st0" points="6.5,14.6 6.6,11.5 9.9,11.5 14.3,8.2 14.3,19.6 10.1,14.9 	"/>
	<g>
		<g>
			<path d="M16.5,10.2c0.6,1.4,1.6,2.3,1.4,3.9c-0.2,1.3-1,3.2-1.8,4.2c-0.2,0.3,0.2,0.5,0.4,0.3c0.8-1.1,1.7-2.9,1.9-4.3
				c0.3-1.9-0.7-2.7-1.4-4.4C16.8,9.7,16.4,9.9,16.5,10.2L16.5,10.2z"/>
		</g>
	</g>
	<g>
		<g>
			<path d="M18.5,9.9c2.9,1.4,2.6,6.8,0,8.4c-0.3,0.2,0,0.6,0.3,0.4c2.8-1.8,3.3-7.7,0-9.3C18.5,9.3,18.2,9.8,18.5,9.9L18.5,9.9z"/>
		</g>
	</g>
</g>
</svg>
