<svg id="Ebene_1" data-name="Ebene 1" xmlns="http://www.w3.org/2000/svg" viewBox="0 0 14.85 12.55"><defs><style>.cls-1{fill:none;stroke:#000;stroke-miterlimit:10;stroke-width:0.5px;}</style></defs><title>audioneu</title><polygon class="cls-1" points="0.26 6.9 0.36 3.8 3.66 3.8 8.06 0.5 8.06 11.9 3.86 7.2 0.26 6.9"/><path d="M11.19,3.26c.6,1.4,1.6,2.3,1.4,3.9a10.52,10.52,0,0,1-1.8,4.2c-.2.3.2.5.4.3a11.12,11.12,0,0,0,1.9-4.3c.3-1.9-.7-2.7-1.4-4.4a.3.3,0,0,0-.5.3Z" transform="translate(-0.93 -0.76)"/><path d="M13.19,3c2.9,1.4,2.6,6.8,0,8.4a.25.25,0,1,0,.3.4c2.8-1.8,3.3-7.7,0-9.3-.3-.1-.6.4-.3.5Z" transform="translate(-0.93 -0.76)"/></svg>