<svg id="Ebene_1" data-name="Ebene 1" xmlns="http://www.w3.org/2000/svg" xmlns:xlink="http://www.w3.org/1999/xlink" viewBox="0 0 74.8 55.39"><defs><style>.cls-1,.cls-3{fill:none;}.cls-2{clip-path:url(#clip-path);}.cls-3{stroke:#cd1719;stroke-width:0.39px;}.cls-4{fill:#cd1719;}</style><clipPath id="clip-path" transform="translate(-5.85 -7.25)"><rect class="cls-1" x="4.4" y="4.1" width="92.4" height="58.5"/></clipPath></defs><title>SMS_Stempel</title><g class="cls-2"><polygon class="cls-3" points="41.45 0.45 34.75 10.85 25.15 3.05 24.95 14.05 11.25 10.45 17.55 20.05 2.55 21.35 14.15 27.55 0.75 33.45 15.35 35.05 6.25 44.45 20.95 41.05 17.85 52.15 29.75 44.45 33.35 54.95 40.05 44.55 49.65 52.35 49.85 41.25 63.55 44.85 57.25 35.35 72.25 34.05 60.65 27.85 74.05 21.85 59.45 20.35 68.55 10.95 53.85 14.25 56.95 3.25 45.05 10.85 41.45 0.45"/></g><path class="cls-4" d="M15.6,43.1l.7-.4a4.35,4.35,0,0,0,.6.7,1.08,1.08,0,0,0,.8.2,3.55,3.55,0,0,0,1-.2,2.18,2.18,0,0,0,.8-.5,2.09,2.09,0,0,0,.4-.6v-.6a.78.78,0,0,0-.4-.4,1.48,1.48,0,0,0-.7-.1c-.2,0-.6.1-1.2.2a8.17,8.17,0,0,1-1.4.1,1.22,1.22,0,0,1-.9-.3,1.79,1.79,0,0,1-.5-.7,1.64,1.64,0,0,1-.1-1,1.35,1.35,0,0,1,.5-.9,8.65,8.65,0,0,1,1-.7,3.45,3.45,0,0,1,1.3-.3,2,2,0,0,1,1.1.3,2.7,2.7,0,0,1,.7.8l-.8.4a1.34,1.34,0,0,0-.8-.7,1.88,1.88,0,0,0-1.2.2,2.85,2.85,0,0,0-1,.7,1.13,1.13,0,0,0-.1.8.66.66,0,0,0,.5.4,3.74,3.74,0,0,0,1.4-.1c.7-.1,1.2-.2,1.5-.2a2,2,0,0,1,1.1.3,1.24,1.24,0,0,1,.6.8,1.73,1.73,0,0,1,.1,1,1.91,1.91,0,0,1-.5,1A2.1,2.1,0,0,1,19,44a5.62,5.62,0,0,1-1.5.4,1.92,1.92,0,0,1-1.2-.4A2,2,0,0,1,15.6,43.1Z" transform="translate(-5.85 -7.25)"/><path class="cls-4" d="M23.9,34.7l.8-.3L26.2,38a3.43,3.43,0,0,1,.4,1.6,1.92,1.92,0,0,1-.4,1.2,3.45,3.45,0,0,1-1.3,1,4.94,4.94,0,0,1-1.5.3,1.85,1.85,0,0,1-1.2-.5,5.65,5.65,0,0,1-.9-1.4l-1.5-3.6.8-.3,1.5,3.6a2.33,2.33,0,0,0,.7,1.1,2,2,0,0,0,.8.4,2,2,0,0,0,1-.2c.6-.3,1-.6,1.1-1a2.9,2.9,0,0,0-.3-1.7Z" transform="translate(-5.85 -7.25)"/><path class="cls-4" d="M28.7,39.9,26,33.8l2.3-1a3.46,3.46,0,0,1,1.2-.3,1.61,1.61,0,0,1,.9.3,1.34,1.34,0,0,1,.6.7,2.2,2.2,0,0,1,.1.8,1.23,1.23,0,0,1-.4.8,2,2,0,0,1,1.1.2,1.85,1.85,0,0,1,.7.8,2.92,2.92,0,0,1,.2.9,1.88,1.88,0,0,1-.2.8,2.65,2.65,0,0,1-.5.6,2.34,2.34,0,0,1-1,.5ZM28,36l1.3-.6A3.22,3.22,0,0,0,30,35c.2-.2.3-.3.3-.5a1.27,1.27,0,0,0-.1-.6,1,1,0,0,0-.4-.5.61.61,0,0,0-.6-.1,3.26,3.26,0,0,0-1,.3l-1.2.5Zm1.2,2.8,1.5-.7a1.07,1.07,0,0,0,.5-.3.78.78,0,0,0,.4-.4c.1-.2.1-.3.2-.5a1.27,1.27,0,0,0-.1-.6,1,1,0,0,0-.4-.5.66.66,0,0,0-.6-.1,1.9,1.9,0,0,0-.9.3l-1.4.6Z" transform="translate(-5.85 -7.25)"/><path class="cls-4" d="M33.3,35.6l.7-.4a4.35,4.35,0,0,0,.6.7,1.88,1.88,0,0,0,.8.2,3.55,3.55,0,0,0,1-.2,2.18,2.18,0,0,0,.8-.5,2.09,2.09,0,0,0,.4-.6v-.6a.78.78,0,0,0-.4-.4,1.48,1.48,0,0,0-.7-.1c-.2,0-.6.1-1.2.2a8.17,8.17,0,0,1-1.4.1,1.22,1.22,0,0,1-.9-.3,1.79,1.79,0,0,1-.5-.7,1.64,1.64,0,0,1-.1-1,1.62,1.62,0,0,1,.5-.9,3.59,3.59,0,0,1,1-.7,3.45,3.45,0,0,1,1.3-.3,2,2,0,0,1,1.1.3,2.7,2.7,0,0,1,.7.8l-.8.4a1.34,1.34,0,0,0-.8-.7,1.88,1.88,0,0,0-1.2.2,2.85,2.85,0,0,0-1,.7.75.75,0,0,0-.1.8.66.66,0,0,0,.5.4,3.74,3.74,0,0,0,1.4-.1c.7-.1,1.2-.2,1.5-.2a2,2,0,0,1,1.1.3,1.24,1.24,0,0,1,.6.8,1.73,1.73,0,0,1,.1,1,1.91,1.91,0,0,1-.5,1,2.1,2.1,0,0,1-1.1.7,5.62,5.62,0,0,1-1.5.4,1.92,1.92,0,0,1-1.2-.4A2,2,0,0,1,33.3,35.6Z" transform="translate(-5.85 -7.25)"/><path class="cls-4" d="M43.6,31l.9-.1a3,3,0,0,1-.3,1.9A3.33,3.33,0,0,1,42.8,34a3.1,3.1,0,0,1-1.8.3,2.85,2.85,0,0,1-1.4-.8,4,4,0,0,1-1-1.5,3,3,0,0,1-.3-1.8,2,2,0,0,1,.6-1.5,3.25,3.25,0,0,1,1.3-1,2.82,2.82,0,0,1,1.8-.2,2.31,2.31,0,0,1,1.4,1l-.7.5a2,2,0,0,0-1-.7,2.63,2.63,0,0,0-1.2.1,2.09,2.09,0,0,0-1,.8,2.66,2.66,0,0,0-.3,1.2,3.08,3.08,0,0,0,.3,1.3,5.67,5.67,0,0,0,.8,1.3,2.38,2.38,0,0,0,1.1.6,1.72,1.72,0,0,0,1.2-.2,1.79,1.79,0,0,0,1-.9A2.55,2.55,0,0,0,43.6,31Z" transform="translate(-5.85 -7.25)"/><path class="cls-4" d="M46.4,32.4l-2.6-6.2L46.5,25a4.6,4.6,0,0,1,1.3-.4,1.61,1.61,0,0,1,.9.3,2.7,2.7,0,0,1,.7.8,1.48,1.48,0,0,1,0,1.3,2.33,2.33,0,0,1-1.1,1.1c.3,0,.5,0,.6.1a4.67,4.67,0,0,1,1,.5l1.8,1.2-1,.4-1.4-.9a6.78,6.78,0,0,0-.9-.6,1.42,1.42,0,0,0-.6-.2h-.4a1.69,1.69,0,0,0-.5.2l-.9.4,1.2,2.7Zm-.6-3.8,1.8-.7a2.77,2.77,0,0,0,.8-.5.86.86,0,0,0,.3-.6,1.27,1.27,0,0,0-.1-.6.9.9,0,0,0-.6-.6,1.45,1.45,0,0,0-1.1.1l-2,.8Z" transform="translate(-5.85 -7.25)"/><path class="cls-4" d="M52.7,29.7l-2.6-6.2.8-.3,2.6,6.2Z" transform="translate(-5.85 -7.25)"/><path class="cls-4" d="M55,28.7l-2.6-6.2,2.3-1a3.46,3.46,0,0,1,1.2-.3,1.61,1.61,0,0,1,.9.3,1.34,1.34,0,0,1,.6.7,2.2,2.2,0,0,1,.1.8,1.23,1.23,0,0,1-.4.8,2,2,0,0,1,1.1.2,1.85,1.85,0,0,1,.7.8,2.92,2.92,0,0,1,.2.9,1.88,1.88,0,0,1-.2.8,2.65,2.65,0,0,1-.5.6,2.34,2.34,0,0,1-1,.5Zm-.7-3.9,1.3-.6a3.22,3.22,0,0,0,.7-.4c.2-.2.3-.3.3-.5a1.27,1.27,0,0,0-.1-.6,1,1,0,0,0-.4-.5.61.61,0,0,0-.6-.1,9.25,9.25,0,0,0-1,.3l-1,.6Zm1.2,2.9L57,27a1.07,1.07,0,0,0,.5-.3.78.78,0,0,0,.4-.4c.1-.1.1-.3.2-.5a1.27,1.27,0,0,0-.1-.6,1,1,0,0,0-.4-.5.66.66,0,0,0-.6-.1,1.9,1.9,0,0,0-.9.3l-1.4.6Z" transform="translate(-5.85 -7.25)"/><path class="cls-4" d="M60.8,26.3l-2.6-6.2,4.5-1.9.3.7-3.6,1.5.8,1.9,3.4-1.4.3.7L60.5,23l.9,2.1,3.8-1.6.3.7Z" transform="translate(-5.85 -7.25)"/><path class="cls-4" d="M66.1,22.2,64.5,19l-.6-1.4.9-.4.6,1.4L66.6,22Zm.5,1.6-.4-.9.9-.4.4.9Z" transform="translate(-5.85 -7.25)"/><path class="cls-4" d="M20,53.4l.7-.4a4.35,4.35,0,0,0,.6.7,1.88,1.88,0,0,0,.8.2,3.55,3.55,0,0,0,1-.2,2.18,2.18,0,0,0,.8-.5,2.09,2.09,0,0,0,.4-.6V52a.78.78,0,0,0-.4-.4,1.48,1.48,0,0,0-.7-.1c-.2,0-.6.1-1.2.2a8.17,8.17,0,0,1-1.4.1,1.22,1.22,0,0,1-.9-.3,1.79,1.79,0,0,1-.5-.7,1.64,1.64,0,0,1-.1-1,1.35,1.35,0,0,1,.5-.9,8.65,8.65,0,0,1,1-.7,3.45,3.45,0,0,1,1.3-.3,2,2,0,0,1,1.1.3,2.7,2.7,0,0,1,.7.8l-.8.4a1.34,1.34,0,0,0-.8-.7,1.88,1.88,0,0,0-1.2.2,2.85,2.85,0,0,0-1,.7.75.75,0,0,0-.1.8.66.66,0,0,0,.5.4,3.74,3.74,0,0,0,1.4-.1c.7-.1,1.2-.2,1.5-.2a2,2,0,0,1,1.1.3,1.24,1.24,0,0,1,.6.8,1.73,1.73,0,0,1,.1,1,1.91,1.91,0,0,1-.5,1,2.1,2.1,0,0,1-1.1.7,5.62,5.62,0,0,1-1.5.4,1.92,1.92,0,0,1-1.2-.4C20.4,54.2,20.2,53.9,20,53.4Z" transform="translate(-5.85 -7.25)"/><path class="cls-4" d="M26.8,52.9l-2.6-6.2,1.2-.5,3.3,3.7c.3.3.5.6.7.8,0-.3-.1-.6-.1-1.1L29,44.7l1.1-.5,2.6,6.2-.8.3-2.2-5.2.4,5.9-.7.3-4-4.5,2.2,5.2Z" transform="translate(-5.85 -7.25)"/><path class="cls-4" d="M32.9,48l.7-.4a4.35,4.35,0,0,0,.6.7,1.88,1.88,0,0,0,.8.2,3.55,3.55,0,0,0,1-.2,2.18,2.18,0,0,0,.8-.5,2.09,2.09,0,0,0,.4-.6v-.6a.78.78,0,0,0-.4-.4,1.48,1.48,0,0,0-.7-.1c-.2,0-.6.1-1.2.2a8.17,8.17,0,0,1-1.4.1,1.22,1.22,0,0,1-.9-.3,1.79,1.79,0,0,1-.5-.7,1.64,1.64,0,0,1-.1-1,1.62,1.62,0,0,1,.5-.9,3.59,3.59,0,0,1,1-.7,3.45,3.45,0,0,1,1.3-.3,2,2,0,0,1,1.1.3,2.7,2.7,0,0,1,.7.8l-.8.4a1.34,1.34,0,0,0-.8-.7,1.88,1.88,0,0,0-1.2.2,2.85,2.85,0,0,0-1,.7.75.75,0,0,0-.1.8c.1.2.2.4.5.4a3.74,3.74,0,0,0,1.4-.1c.7-.1,1.2-.2,1.5-.2a2,2,0,0,1,1.1.3,1.24,1.24,0,0,1,.6.8,1.73,1.73,0,0,1,.1,1,1.91,1.91,0,0,1-.5,1,2.1,2.1,0,0,1-1.1.7,5.62,5.62,0,0,1-1.5.4,1.92,1.92,0,0,1-1.2-.4A3.51,3.51,0,0,1,32.9,48Z" transform="translate(-5.85 -7.25)"/><path class="cls-4" d="M40.7,44.7l-.3-.6,4.8-2,.3.6Z" transform="translate(-5.85 -7.25)"/><path class="cls-4" d="M48.2,41.5l.7-.4a4.35,4.35,0,0,0,.6.7,1.88,1.88,0,0,0,.8.2,3.55,3.55,0,0,0,1-.2,2.18,2.18,0,0,0,.8-.5,2.09,2.09,0,0,0,.4-.6v-.6a.78.78,0,0,0-.4-.4,1.48,1.48,0,0,0-.7-.1c-.2,0-.6.1-1.2.2a8.17,8.17,0,0,1-1.4.1,1.22,1.22,0,0,1-.9-.3,1.79,1.79,0,0,1-.5-.7,1.64,1.64,0,0,1-.1-1,1.35,1.35,0,0,1,.5-.9,8.65,8.65,0,0,1,1-.7,3.45,3.45,0,0,1,1.3-.3,2,2,0,0,1,1.1.3,2.7,2.7,0,0,1,.7.8l-.8.4a1.34,1.34,0,0,0-.8-.7,1.88,1.88,0,0,0-1.2.2,2.85,2.85,0,0,0-1,.7,1.13,1.13,0,0,0-.1.8.66.66,0,0,0,.5.4,3.74,3.74,0,0,0,1.4-.1c.7-.1,1.2-.2,1.5-.2a2,2,0,0,1,1.1.3,1.24,1.24,0,0,1,.6.8,1.73,1.73,0,0,1,.1,1,1.91,1.91,0,0,1-.5,1,2.1,2.1,0,0,1-1.1.7,5.62,5.62,0,0,1-1.5.4,1.92,1.92,0,0,1-1.2-.4A3.51,3.51,0,0,1,48.2,41.5Z" transform="translate(-5.85 -7.25)"/><path class="cls-4" d="M57.4,38.2l.8-.2a2.2,2.2,0,0,1-.2,1.4,2,2,0,0,1-1.1.9,2.29,2.29,0,0,1-1.8.1A2.27,2.27,0,0,1,53.8,39a2.89,2.89,0,0,1-.2-2,2.19,2.19,0,0,1,1.2-1.3,1.72,1.72,0,0,1,1.7,0,2.22,2.22,0,0,1,1.3,1.5.31.31,0,0,0,.1.2l-3.3,1.4a1.79,1.79,0,0,0,.9,1,1.08,1.08,0,0,0,1.1,0,1,1,0,0,0,.6-.5A2.15,2.15,0,0,0,57.4,38.2Zm-3-.2,2.5-1.1a1.44,1.44,0,0,0-.6-.7,1.08,1.08,0,0,0-1.1,0,1.21,1.21,0,0,0-.7.7A1.42,1.42,0,0,0,54.4,38Z" transform="translate(-5.85 -7.25)"/><path class="cls-4" d="M59.8,38.9l-1.9-4.5.7-.3.3.7a1.29,1.29,0,0,1,.2-.8.78.78,0,0,1,.4-.4,2.48,2.48,0,0,1,.9-.1v.8a1.27,1.27,0,0,0-.6.1,1.38,1.38,0,0,0-.4.3.75.75,0,0,0-.1.5,2.92,2.92,0,0,0,.2.9l1,2.3Z" transform="translate(-5.85 -7.25)"/><path class="cls-4" d="M63.9,37.2l-3.6-3.7.8-.3,2.1,2.3c.2.2.4.5.7.8,0-.3-.1-.6-.1-1L63.6,32l.8-.3.2,5.2Z" transform="translate(-5.85 -7.25)"/><path class="cls-4" d="M64.7,30.6l-.4-.9.8-.3.4.9Zm2.2,5.3L65,31.4l.8-.3,1.9,4.5Z" transform="translate(-5.85 -7.25)"/><path class="cls-4" d="M71.1,32.2l.8-.2a2.57,2.57,0,0,1-.1,1.5,2.41,2.41,0,0,1-1,1,1.72,1.72,0,0,1-1.7,0A2.48,2.48,0,0,1,67.8,33a3.53,3.53,0,0,1-.3-1.4,1.5,1.5,0,0,1,.4-1.1,1.83,1.83,0,0,1,1-.7,1.51,1.51,0,0,1,1.3-.1,1.59,1.59,0,0,1,1,.8l-.7.4a1.16,1.16,0,0,0-.7-.5.85.85,0,0,0-.7,0,1.56,1.56,0,0,0-.8.8,1.81,1.81,0,0,0,.2,1.4,3.09,3.09,0,0,0,.9,1.2,1.08,1.08,0,0,0,1.1,0,.9.9,0,0,0,.6-.6A1.7,1.7,0,0,0,71.1,32.2Z" transform="translate(-5.85 -7.25)"/><path class="cls-4" d="M75.6,30.5l.8-.2a2.2,2.2,0,0,1-.2,1.4,2,2,0,0,1-1.1.9,2.29,2.29,0,0,1-1.8.1A2.27,2.27,0,0,1,72,31.3a2.89,2.89,0,0,1-.2-2A2.19,2.19,0,0,1,73,28a1.72,1.72,0,0,1,1.7,0A2.48,2.48,0,0,1,76,29.5a.31.31,0,0,0,.1.2l-3.3,1.4a1.34,1.34,0,0,0,.9.9,1.08,1.08,0,0,0,1.1,0,1,1,0,0,0,.6-.5A2,2,0,0,0,75.6,30.5Zm-3-.2,2.5-1.1a1.44,1.44,0,0,0-.6-.7,1.08,1.08,0,0,0-1.1,0,1.21,1.21,0,0,0-.7.7A2,2,0,0,0,72.6,30.3Z" transform="translate(-5.85 -7.25)"/></svg>